<?xml version="1.0" encoding="UTF-8" standalone="no"?>
<!-- Created with Inkscape (http://www.inkscape.org/) -->

<svg
   width="64pt"
   height="64pt"
   viewBox="0 0 22.577778 22.577778"
   version="1.1"
   id="svg831"
   inkscape:version="1.1.2 (b8e25be833, 2022-02-05)"
   sodipodi:docname="Export - Unblash - 64px.svg"
   inkscape:export-filename="E:\Project Design\TR Icon Design Project\Carlos - Icon Design Project\September\Done\100%\Filedline\02 - Washing Machine.png"
   inkscape:export-xdpi="576"
   inkscape:export-ydpi="576"
   xmlns:inkscape="http://www.inkscape.org/namespaces/inkscape"
   xmlns:sodipodi="http://sodipodi.sourceforge.net/DTD/sodipodi-0.dtd"
   xmlns="http://www.w3.org/2000/svg"
   xmlns:svg="http://www.w3.org/2000/svg"
   xmlns:rdf="http://www.w3.org/1999/02/22-rdf-syntax-ns#"
   xmlns:cc="http://creativecommons.org/ns#"
   xmlns:dc="http://purl.org/dc/elements/1.1/">
  <defs
     id="defs825">
    <pattern
       id="EMFhbasepattern"
       patternUnits="userSpaceOnUse"
       width="6"
       height="6"
       x="0"
       y="0" />
    <pattern
       id="EMFhbasepattern-9"
       patternUnits="userSpaceOnUse"
       width="6"
       height="6"
       x="0"
       y="0" />
    <pattern
       id="EMFhbasepattern-0"
       patternUnits="userSpaceOnUse"
       width="6"
       height="6"
       x="0"
       y="0" />
    <pattern
       id="EMFhbasepattern-7"
       patternUnits="userSpaceOnUse"
       width="6"
       height="6"
       x="0"
       y="0" />
    <pattern
       id="EMFhbasepattern-2"
       patternUnits="userSpaceOnUse"
       width="6"
       height="6"
       x="0"
       y="0" />
    <pattern
       id="EMFhbasepattern-98"
       patternUnits="userSpaceOnUse"
       width="6"
       height="6"
       x="0"
       y="0" />
    <pattern
       id="EMFhbasepattern-6"
       patternUnits="userSpaceOnUse"
       width="6"
       height="6"
       x="0"
       y="0" />
    <pattern
       id="EMFhbasepattern-01"
       patternUnits="userSpaceOnUse"
       width="6"
       height="6"
       x="0"
       y="0" />
    <pattern
       id="EMFhbasepattern-07"
       patternUnits="userSpaceOnUse"
       width="6"
       height="6"
       x="0"
       y="0" />
    <pattern
       id="EMFhbasepattern-8"
       patternUnits="userSpaceOnUse"
       width="6"
       height="6"
       x="0"
       y="0" />
    <pattern
       id="EMFhbasepattern-4"
       patternUnits="userSpaceOnUse"
       width="6"
       height="6"
       x="0"
       y="0" />
    <pattern
       id="EMFhbasepattern-40"
       patternUnits="userSpaceOnUse"
       width="6"
       height="6"
       x="0"
       y="0" />
    <pattern
       id="EMFhbasepattern-08"
       patternUnits="userSpaceOnUse"
       width="6"
       height="6"
       x="0"
       y="0" />
    <pattern
       id="EMFhbasepattern-04"
       patternUnits="userSpaceOnUse"
       width="6"
       height="6"
       x="0"
       y="0" />
    <pattern
       id="EMFhbasepattern-014"
       patternUnits="userSpaceOnUse"
       width="6"
       height="6"
       x="0"
       y="0" />
    <pattern
       id="EMFhbasepattern-27"
       patternUnits="userSpaceOnUse"
       width="6"
       height="6"
       x="0"
       y="0" />
    <pattern
       id="EMFhbasepattern-09"
       patternUnits="userSpaceOnUse"
       width="6"
       height="6"
       x="0"
       y="0" />
    <pattern
       id="EMFhbasepattern-5"
       patternUnits="userSpaceOnUse"
       width="6"
       height="6"
       x="0"
       y="0" />
    <pattern
       id="EMFhbasepattern-018"
       patternUnits="userSpaceOnUse"
       width="6"
       height="6"
       x="0"
       y="0" />
  </defs>
  <sodipodi:namedview
     id="base"
     pagecolor="#ffffff"
     bordercolor="#666666"
     borderopacity="1.0"
     inkscape:pageopacity="0.0"
     inkscape:pageshadow="2"
     inkscape:zoom="8.7304688"
     inkscape:cx="41.063087"
     inkscape:cy="47.305593"
     inkscape:document-units="pt"
     inkscape:current-layer="layer1"
     showgrid="false"
     units="pt"
     inkscape:window-width="958"
     inkscape:window-height="1041"
     inkscape:window-x="953"
     inkscape:window-y="0"
     inkscape:window-maximized="0"
     inkscape:pagecheckerboard="true"
     inkscape:showpageshadow="false"
     inkscape:object-paths="true"
     inkscape:snap-intersection-paths="true"
     inkscape:snap-smooth-nodes="true"
     inkscape:snap-midpoints="true"
     showguides="true"
     inkscape:snap-bbox="true"
     inkscape:bbox-nodes="true"
     inkscape:snap-nodes="false"
     inkscape:snap-global="true"
     inkscape:snap-others="false">
    <inkscape:grid
       type="xygrid"
       id="grid1378" />
    <sodipodi:guide
       position="0.97013831,21.607643"
       orientation="78.000048,0"
       id="guide1380"
       inkscape:locked="false" />
    <sodipodi:guide
       position="0.97013831,0.97013129"
       orientation="0,78.000005"
       id="guide1382"
       inkscape:locked="false" />
    <sodipodi:guide
       position="21.607639,0.97013129"
       orientation="-78.000048,0"
       id="guide1384"
       inkscape:locked="false" />
    <sodipodi:guide
       position="21.607639,21.607643"
       orientation="0,-78.000005"
       id="guide1386"
       inkscape:locked="false" />
  </sodipodi:namedview>
  <metadata
     id="metadata828">
    <rdf:RDF>
      <cc:Work
         rdf:about="">
        <dc:format>image/svg+xml</dc:format>
        <dc:type
           rdf:resource="http://purl.org/dc/dcmitype/StillImage" />
      </cc:Work>
    </rdf:RDF>
  </metadata>
  <g
     inkscape:label="Icon"
     inkscape:groupmode="layer"
     id="layer1"
     transform="translate(0,-274.42223)">
    <g
       id="g70189"
       style="display:inline;stroke-width:0.794872"
       transform="matrix(1.2580645,0,0,1.2580645,0.63857564,-39.57335)">
      <g
         id="g7842"
         style="display:inline;stroke-width:0.794872">
        <path
           style="color:#000000;fill:#ececec;stroke-width:0.794872;stroke-linecap:round;stroke-linejoin:round;-inkscape-stroke:none"
           d="m 9.3747137,253.06806 c -0.3051233,0 -0.5933567,0.14411 -0.7764267,0.38821 l -0.5521675,0.73497 a 0.2553168,0.2553168 0 0 0 -0.04146,0.0866 L 7.60137,255.77985 a 0.2553168,0.2553168 0 0 0 0.2110674,0.31849 l 3.4656526,0.49187 a 0.2553168,0.2553168 0 0 0 0.292102,-0.25253 v -1.99384 a 0.2553168,0.2553168 0 0 0 -0.05277,-0.15264 l -0.550284,-0.73497 c -0.183069,-0.2441 -0.471303,-0.38821 -0.776426,-0.38821 z"
           id="path154008" />
        <path
           id="path51238"
           style="color:#000000;fill:#cccccc;fill-opacity:1;stroke-width:0.794872;stroke-linecap:round;stroke-linejoin:round;-inkscape-stroke:none"
           d="m 8.6330608,253.76649 -0.4053438,0.53987 a 0.22511597,0.22511597 0 0 0 -0.03649,0.0765 l -0.355665,1.32418 a 0.22511597,0.22511597 0 0 0 0.1859658,0.28093 l 3.0559062,0.43348 a 0.22511597,0.22511597 0 0 0 0.257626,-0.22246 v -1.7581 a 0.22511597,0.22511597 0 0 0 -0.0466,-0.13453 l -0.404465,-0.53987 z" />
        <path
           style="color:#000000;fill:#66342d;stroke-width:0.794872;stroke-linecap:round;stroke-linejoin:round;-inkscape-stroke:none"
           d="m 10.190423,263.12903 a 0.24651614,0.24651614 0 0 0 -0.2474617,0.24746 v 1.23185 c 0,0.26935 0.2237547,0.4931 0.4931037,0.4931 h 0.493105 c 0.269349,0 0.493104,-0.22375 0.493104,-0.4931 v -1.23185 a 0.24651614,0.24651614 0 0 0 -0.247462,-0.24746 z"
           id="path156360" />
        <path
           style="color:#000000;fill:#66342d;stroke-width:0.794872;stroke-linecap:round;stroke-linejoin:round;-inkscape-stroke:none"
           d="m 2.5830011,263.12903 a 0.24651613,0.24651613 0 0 0 -0.2474617,0.24746 v 1.23185 c 0,0.26935 0.2237547,0.49311 0.493104,0.49311 h 0.493104 c 0.2693491,0 0.4931038,-0.22376 0.4931038,-0.49311 v -1.23185 a 0.24651613,0.24651613 0 0 0 -0.2456421,-0.24746 z"
           id="path156806" />
        <path
           style="color:#000000;fill:#fec872;stroke-width:0.794872;stroke-linecap:round;stroke-linejoin:round;-inkscape-stroke:none"
           d="m 2.230459,254.16948 c -0.7101861,0 -1.29271824,0.58062 -1.29271824,1.29081 v 6.19856 c 0,0.71019 0.58253214,1.29081 1.29271824,1.29081 h 9.298801 c 0.710186,0 1.290812,-0.58062 1.290812,-1.29081 v -6.19856 c 0,-0.71019 -0.580626,-1.29081 -1.290812,-1.29081 z"
           id="path154200" />
        <path
           style="color:#000000;fill:#a7e3fa;fill-opacity:1;stroke-width:0.794872;stroke-linecap:round;stroke-linejoin:round;-inkscape-stroke:none"
           d="m 2.5441151,255.57605 h 6.8052236 c 0.1492586,0 0.265626,0.11637 0.265625,0.26562 v 5.45389 c 10e-7,0.14925 -0.1163664,0.26562 -0.265625,0.26562 H 2.5441151 c -0.1492586,0 -0.265626,-0.11637 -0.265625,-0.26562 v -5.45389 c -1e-6,-0.14925 0.1163664,-0.26562 0.265625,-0.26562 z"
           id="path154400"
           sodipodi:nodetypes="ssccssccs" />
        <path
           style="color:#000000;fill:#fca311;stroke-width:0.794872;stroke-linecap:round;stroke-linejoin:round;-inkscape-stroke:none"
           d="m 10.874767,259.40781 c -0.269344,0 -0.4931,0.22376 -0.493104,0.4931 v 0.4931 c 4e-6,0.26935 0.22376,0.49311 0.493104,0.49311 h 0.740566 c 0.269345,0 0.491281,-0.22376 0.491285,-0.49311 v -0.4931 c -4e-6,-0.26934 -0.22194,-0.4931 -0.491285,-0.4931 z"
           id="path156162" />
        <path
           style="color:#000000;fill:#3a4d5c;stroke-width:0.794872;stroke-linecap:round;stroke-linejoin:round;-inkscape-stroke:none"
           d="m 11.22556,257.30891 c -0.104093,0.003 -0.202702,0.0282 -0.291646,0.0714 l -4.81e-4,-4.9e-4 a 0.24045599,0.24045599 0 0 0 -0.339081,0 0.24045599,0.24045599 0 0 0 0,0.33908 l 4.81e-4,4.9e-4 c -0.04577,0.0946 -0.07139,0.20059 -0.07138,0.31184 -3e-6,0.39555 0.325343,0.72043 0.720898,0.72043 0.395555,0 0.722309,-0.32488 0.722307,-0.72043 2e-6,-0.39555 -0.326752,-0.72231 -0.722307,-0.72231 -0.0062,0 -0.01264,-1.6e-4 -0.01879,0 z"
           id="path190152" />
        <path
           style="color:#000000;fill:#3a4d5c;stroke-width:0.794872;stroke-linecap:round;stroke-linejoin:round;-inkscape-stroke:none"
           d="m 11.225071,255.17361 c -0.396865,0.0103 -0.719742,0.3413 -0.719739,0.74044 -3e-6,0.40548 0.333511,0.73852 0.738996,0.73852 0.405486,0 0.740443,-0.33303 0.740441,-0.73852 10e-7,-0.11351 -0.02646,-0.22155 -0.07318,-0.31822 l 4.93e-4,-5e-4 a 0.24649288,0.24649288 0 0 0 0,-0.34903 0.24649288,0.24649288 0 0 0 -0.17476,-0.0727 0.24649288,0.24649288 0 0 0 -0.174759,0.0727 l -4.93e-4,4.9e-4 c -0.09666,-0.0467 -0.204244,-0.0732 -0.317745,-0.0732 -0.0063,0 -0.01296,-1.6e-4 -0.01926,0 z"
           id="path155531" />
        <path
           style="color:#000000;fill:#9a605a;stroke-width:0.79487;stroke-linecap:round;stroke-linejoin:round;-inkscape-stroke:none"
           d="m 11.253241,263.1622 a 0.24350049,0.24350049 0 0 0 -0.242637,0.24444 v 1.70385 c 0,0.26605 0.221017,0.48707 0.487072,0.48707 h 0.487071 c 0.266054,0 0.487071,-0.22102 0.487071,-0.48707 v -1.70385 a 0.24350049,0.24350049 0 0 0 -0.244434,-0.24444 z"
           id="path156366" />
        <path
           style="color:#000000;fill:#9a605a;stroke-width:0.794872;stroke-linecap:round;stroke-linejoin:round;-inkscape-stroke:none"
           d="m 1.5245187,263.14723 a 0.24649385,0.24649385 0 0 0 -0.2456199,0.24745 v 1.72479 c 0,0.26932 0.221915,0.49306 0.4912399,0.49306 h 0.4930594 c 0.2693249,0 0.4930594,-0.22374 0.4930594,-0.49306 v -1.72479 a 0.24649385,0.24649385 0 0 0 -0.24562,-0.24745 z"
           id="path156812" />
        <path
           style="color:#000000;fill:#3a4d5c;stroke-width:0.794872;stroke-linecap:round;stroke-linejoin:round;-inkscape-stroke:none"
           d="m 12.699286,250.41171 c -0.405483,0 -0.73875,0.33327 -0.738747,0.73875 -3e-6,0.40548 0.333264,0.74056 0.738747,0.74056 0.405483,0 0.740569,-0.33508 0.740565,-0.74056 4e-6,-0.40548 -0.335082,-0.73875 -0.740565,-0.73875 z"
           id="path153620" />
        <path
           style="color:#000000;fill:#3a4d5c;stroke-width:0.794872;stroke-linecap:round;stroke-linejoin:round;-inkscape-stroke:none"
           d="m 7.9375,250.95014 c -0.4004799,0 -0.7296347,0.32914 -0.729631,0.72963 -3.7e-6,0.40047 0.3291511,0.73142 0.729631,0.73142 0.4004799,0 0.7296347,-0.33095 0.7296311,-0.73142 3.6e-6,-0.40049 -0.3291512,-0.72963 -0.7296311,-0.72963 z"
           id="path153626" />
        <path
           style="color:#000000;fill:#bd887f;stroke-width:0.794872;stroke-linecap:round;stroke-linejoin:round;-inkscape-stroke:none"
           d="m 1.324248,262.56549 c -0.41537161,0 -0.75863553,0.3414 -0.75863945,0.75678 -2.45e-6,0.41537 0.34326039,0.75677 0.75863945,0.75677 h 11.109317 c 0.415371,0 0.758634,-0.34141 0.758639,-0.75677 3e-6,-0.41538 -0.34326,-0.75678 -0.758639,-0.75678 z"
           id="path157172" />
        <path
           style="color:#000000;fill:#cccccc;stroke-width:0.794872;stroke-linecap:round;stroke-linejoin:round;-inkscape-stroke:none"
           d="m 15.611331,258.42201 c -0.412447,0 -0.753283,0.33898 -0.753283,0.75142 0,0.33439 0,0.66877 0,1.00315 4.9e-4,0.13852 0.113197,0.25039 0.251711,0.24986 h 1.003144 c 0.137791,-4.8e-4 0.249372,-0.11206 0.249861,-0.24986 0,-0.33438 0,-0.66876 0,-1.00315 0,-0.41244 -0.338988,-0.75142 -0.751433,-0.75142 z"
           id="path1097-2"
           sodipodi:nodetypes="sccccccs" />
        <path
           style="color:#000000;fill:#ececec;stroke-width:0.794872;stroke-linecap:round;stroke-linejoin:round;-inkscape-stroke:none"
           d="m 14.850802,259.59999 c -0.154387,0.13971 -0.251999,0.34145 -0.251999,0.56381 v 0.75846 c 0,0.27655 0.229717,0.50627 0.506268,0.50627 h 1.012537 c 0.276551,0 0.504399,-0.22972 0.504399,-0.50627 v -0.75846 c 0,-0.2215 -0.09686,-0.42254 -0.250209,-0.56219 z"
           id="path1103-9"
           sodipodi:nodetypes="csssssscc" />
        <path
           id="path166109"
           style="color:#000000;fill:#87d1ee;fill-opacity:1;stroke-width:3.00424;stroke-linecap:round;stroke-linejoin:round;-inkscape-stroke:none"
           d="m 34.001953,-84.289062 v 14.313642 h 1.235481 c 0.564127,0 1.00391,-0.439812 1.003906,-1.003906 v -20.613613 c 4e-6,-0.564095 -0.439779,-1.003906 -1.003906,-1.003906 H 9.7625662 c -0.5641269,0 -1.0039061,0.439811 -1.0039061,1.003906 v 1.303877 H 28.001953 c 3.313709,0 6,2.686291 6,6 z"
           transform="matrix(0.26458334,0,0,0.26458334,0,280.06666)"
           sodipodi:nodetypes="ccsccsssccc" />
      </g>
      <path
         id="rect17820"
         style="color:#000000;fill:#000000;stroke-width:3.00424;stroke-linecap:round;stroke-linejoin:round;-inkscape-stroke:none"
         d="m 48.898438,-68.283203 h 1.099609 c 1.645017,0 3.003902,-1.358905 3.003906,-3.003906 v -23.001953 c 0,-1.116435 0.752459,-1.994141 2.494141,-1.994141 1.741678,0 2.503906,0.877706 2.503906,1.994141 v 12.443359 c -1.159602,0.417931 -2.001953,1.534151 -2.001953,2.828125 v 1.505859 c -0.60974,0.550071 -0.9961,1.344289 -0.996094,2.222657 v 3.003906 c 0,0.728178 0.403772,1.374605 0.996094,1.724609 v 2.277344 c 0.0022,0.553053 0.452811,0.999338 1.005859,0.996094 0.549238,-0.0021 0.993953,-0.446856 0.996094,-0.996094 v -2 h 2 v 2 c 0.0021,0.549238 0.446856,0.993953 0.996094,0.996094 0.552286,0.0022 1.001753,-0.443808 1.003906,-0.996094 v -2.275391 c 0.593573,-0.349691 0.996094,-0.997445 0.996094,-1.726562 v -3.003906 c 6e-6,-0.879351 -0.38517,-1.674473 -0.996094,-2.22461 v -1.503906 c 0,-1.296171 -0.839291,-2.413817 -2,-2.830078 v -12.441406 c 0,-2.197304 -1.931919,-3.994141 -4.503906,-3.994141 -2.571991,0 -4.494141,1.796837 -4.494141,3.994141 v 23.001953 c 0,0.564132 -0.439785,1.003906 -1.003906,1.003906 h -0.996094 v -23.001953 c 0,-2.749607 -2.248471,-4.998047 -4.998047,-4.998047 h -0.505859 l -1.857422,-2.480467 c -0.469716,-0.62629 -1.115777,-1.08453 -1.841797,-1.32617 l 6.490234,-4.73828 c 0.485758,0.34108 1.074346,0.54296 1.707032,0.54296 1.64502,0 3.005874,-1.3589 3.005859,-3.0039 1.5e-5,-1.645 -1.360839,-2.99805 -3.005859,-2.99805 -1.645021,0 -2.996109,1.35305 -2.996094,2.99805 -3e-6,0.29058 0.04256,0.57105 0.121094,0.83789 l -8.080078,5.89648 -4.271485,-3.5957 c 0.145861,-0.35204 0.226566,-0.73692 0.226563,-1.13867 1.5e-5,-1.64504 -1.351075,-2.99805 -2.996094,-2.99805 -1.645019,0 -2.996109,1.35301 -2.996094,2.99805 -1.5e-5,1.645 1.351075,3.0039 2.996094,3.0039 0.519713,0 1.00967,-0.13553 1.4375,-0.37304 l 2.976562,2.50586 c -0.810968,0.21893 -1.538191,0.70261 -2.052734,1.38867 l -1.863281,2.480467 H 8.0019531 c -2.7495749,0 -5.0058593,2.24844 -5.0058593,4.998047 v 23.998047 c 0,1.125956 0.3801674,2.166107 1.0107421,3.003906 -1.6498731,0 -3.01072662,1.353045 -3.01074215,2.998047 -9.71e-6,1.645001 1.36083955,2.996094 3.00585935,2.996094 h 0.6269531 v 4.001953 c 0,1.092699 0.8994543,2 1.9921876,2 h 2 c 1.0927332,0 2.0019532,-0.907301 2.0019532,-2 h 2 c 1.092733,0 2,-0.909217 2,-2.001953 v -2 H 37.375 v 2 c 0,1.092736 0.907267,2.001953 2,2.001953 h 2 c 0,1.092699 0.90922,2 2.001953,2 h 2 c 1.092733,0 2,-0.907301 2,-2 v -4.001953 h 0.619141 c 1.64499,0 3.00584,-1.35113 3.005859,-2.996094 1.1e-5,-1.64504 -1.360839,-2.998047 -3.008789,-2.998047 0.437499,-0.582037 0.75316,-1.261229 0.905274,-2 z m 0.103515,-41.005857 c 4e-6,0.56413 -0.441735,1.0039 -1.005859,1.0039 -0.570863,0 -0.996129,-0.38722 -0.996129,-1.00416 -8e-6,-0.56022 0.44785,-0.99792 0.996111,-0.99792 0.564142,1.3e-4 1.005881,0.43405 1.005877,0.99818 z m -18.005863,2 c 0,0.62875 -0.410748,1.00392 -0.996132,1.00392 -0.564125,0 -0.996094,-0.43981 -0.996094,-1.0039 0,-0.55857 0.408873,-0.99611 0.969746,-0.99611 0.625667,-1e-5 1.022485,0.43196 1.02248,0.99609 z m 4.408207,7.00586 h 3.195312 c 0.567421,0 1.099001,0.26107 1.439453,0.714841 l 0.966797,1.285156 h -8.011718 l 0.96289,-1.285156 c 0.340453,-0.453961 0.879843,-0.714841 1.447266,-0.714841 z M 8.0019531,-96.283203 H 44.003906 c 1.668703,0 2.996094,1.329348 2.996094,2.998047 v 23.998047 c 0,1.668699 -1.327391,3.003906 -2.996094,3.003906 H 8.0019531 c -1.6686999,0 -3.0039062,-1.335207 -3.0039062,-3.003906 v -23.998047 c 0,-1.668699 1.3352063,-2.998047 3.0039062,-2.998047 z m 1.9999999,1.994141 c -1.64502,0 -3.0039167,1.358904 -3.0039061,3.003906 v 19.998047 c -1.06e-5,1.645001 1.3588861,3.003906 3.0039061,3.003906 h 24.996094 c 1.64502,0 3.003914,-1.358905 3.003906,-3.003906 v -19.998047 c 8e-6,-1.645002 -1.358886,-3.003906 -3.003906,-3.003906 z m 32.457031,0 c -1.649112,0.04156 -2.958995,1.384607 -2.958984,3.003906 -1.1e-5,1.645001 1.353026,2.996094 2.998047,2.996094 1.64502,0 3.003914,-1.351055 3.003906,-2.996094 2e-6,-0.460509 -0.107363,-0.898827 -0.295875,-1.292016 0.392727,-0.39173 0.392727,-1.026286 0.001,-1.417016 -0.462634,-0.438695 -1.123746,-0.294223 -1.418969,10e-4 -0.393158,-0.188475 -0.829598,-0.295874 -1.329125,-0.295874 z m -32.457031,2 h 24.996094 c 0.564127,0 1.00391,0.439811 1.003906,1.003906 v 19.998047 c 4e-6,0.564094 -0.439779,1.003906 -1.003906,1.003906 H 10.001953 c -0.5641269,0 -1.0039099,-0.439812 -1.0039061,-1.003906 v -19.998047 c -3.8e-6,-0.564095 0.4397792,-1.003906 1.0039061,-1.003906 z m 33.499998,1.003904 c 4e-6,0.564132 -0.439781,0.996094 -1.003906,0.996094 -0.564129,0 -0.996098,-0.431962 -0.996094,-0.996094 -4e-6,-0.564095 0.431965,-1.003906 0.996095,-1.003905 0.587224,0 1.003905,0.396104 1.003905,1.003905 z m -18.787107,4.791017 -8.998047,8.998047 c -0.393034,0.39095 -0.393034,1.027019 0,1.417969 0.390056,0.387827 1.0201,0.387827 1.410156,0 l 9.005859,-9 c 0.391727,-0.39073 0.391727,-1.025286 0,-1.416016 -0.432645,-0.383452 -0.964498,-0.45347 -1.417968,0 z M 39.5,-83.283202 c -1.1e-5,1.645001 1.353026,2.996094 2.998047,2.996094 1.64502,0 3.003914,-1.351093 3.003906,-2.996094 8e-6,-1.645002 -1.358886,-3.003906 -3.042969,-3.003906 -0.471962,0.01117 -0.882055,0.117501 -1.252953,0.295874 -0.391056,-0.388827 -1.0211,-0.388827 -1.411156,-10e-4 -0.387827,0.390056 -0.388943,1.021214 0.001,1.411157 -0.189334,0.394587 -0.295878,0.835218 -0.295875,1.297875 z m 2.998052,-1.003906 c 0.564125,-10e-7 1.00391,0.439773 1.003906,1.003905 4e-6,0.564132 -0.439781,0.996094 -1.003906,0.996094 -0.564129,0 -0.996098,-0.431962 -0.996094,-0.996094 0,-0.643577 0.476021,-1.003905 0.996094,-1.003905 z m -14.625,0.294915 -6.501953,6.496094 c -0.393034,0.39095 -0.393034,1.027019 0,1.417969 0.39073,0.391726 1.025285,0.391726 1.416015,0 l 6.496094,-6.503906 c 0.387827,-0.390056 0.387827,-1.020101 0,-1.410157 -0.463603,-0.417451 -1.085705,-0.324451 -1.410156,0 z m 31.130859,3.970704 c 0.564121,0 0.996094,0.439774 0.996094,1.003906 v 0.732422 h -2 v -0.732422 c 0,-0.564132 0.439785,-1.003906 1.003906,-1.003906 z m -18.05664,1.736328 c -1.069778,0.02775 -1.949204,0.924374 -1.949219,2 v 2 c 1.5e-5,1.092699 0.907286,2 2,2 h 3.005859 c 1.092715,0 1.992173,-0.907301 1.992188,-2 v -2 c -1.5e-5,-1.092699 -0.899473,-2 -1.992188,-2 z m 0.05078,2 h 3.005859 v 2 h -3.005859 z m 19.001953,0 c 0.732982,0 0.996098,0.457705 0.996098,0.996098 v 3.003906 h -3.992188 v -3.003906 c 0,-0.556372 0.377505,-0.996092 0.996092,-0.996092 z m -19.998047,6.001953 c -0.552286,-0.0022 -1.001753,0.443808 -1.003906,0.996094 -0.0022,0.55534 0.448566,1.006079 1.003906,1.003906 H 45 c 0.552286,-0.0022 0.998255,-0.45162 0.996094,-1.003906 C 45.993953,-69.836347 45.549238,-70.281062 45,-70.283203 Z M 4.0019531,-64.289062 H 47.996094 c 0.564124,0 1.005863,0.439773 1.005859,1.003906 -7e-6,0.564132 -0.441727,0.996094 -1.005859,0.996094 H 4.0019531 c -0.5641266,0 -1.0058627,-0.432 -1.0058593,-0.996094 5.3e-6,-0.564133 0.4417294,-1.003906 1.0058593,-1.003906 z m 2.6191407,4 h 2 v 2 2.001953 h -2 z m 4.0019532,0 h 2 v 2 h -2 z m 28.751953,0 h 2 v 2 h -2 z m 4.001953,0 h 2 v 4.001953 h -2 z"
         transform="matrix(0.26458334,0,0,0.26458334,0,280.06666)"
         sodipodi:nodetypes="cscssscsccscccccccsccsccscssssscssccccscssccccscsccccssscsscssscssccsscssscssccscccsccsccscccssscsssssssccssccsssccscscccccssccssccccccccccscccsssccscsccscccsscccccccsscscccccccscccsccccscccssssssscccccccccccccccccccccccccccc" />
    </g>
  </g>
</svg>
